<?xml version="1.0" encoding="iso-8859-1"?>
<!-- Uploaded to: SVG Repo, www.svgrepo.com, Generator: SVG Repo Mixer Tools -->
<svg version="1.1" id="Layer_1" xmlns="http://www.w3.org/2000/svg" xmlns:xlink="http://www.w3.org/1999/xlink" 
	 viewBox="0 0 512 512" xml:space="preserve">
<rect x="461.35" y="203.691" style="fill:#FF3D63;" width="31.347" height="29.662"/>
<rect x="477.03" y="203.691" style="fill:#FF0335;" width="15.673" height="29.662"/>
<path style="fill:#00AD94;" d="M512,266.744v15.705h-31.347v-15.705c0-7.241-5.893-13.134-13.124-13.134h-22.695v-31.347h22.695
	C492.053,222.264,512,242.221,512,266.744z"/>
<path style="fill:#008878;" d="M495.626,263.213v19.237h-14.973v-15.705c0-7.241-5.893-13.134-13.124-13.134h-22.695v-14.775h29.55
	C474.384,238.836,495.626,241.625,495.626,263.213z"/>
<path style="fill:#FFC473;" d="M431.783,138.107v204.936c-46.644,43.792-122.41,72.391-208.05,72.714
	c-0.502,0.01-1.014,0.01-1.526,0.01c-84.428,0-159.389-27.46-206.535-69.914V135.296C62.819,92.842,137.78,65.382,222.208,65.382
	c0.512,0,1.024,0,1.526,0.01C309.373,65.717,385.139,94.315,431.783,138.107z"/>
<path style="fill:#FFB74D;" d="M431.783,138.107v204.936c-46.644,43.792-122.41,72.391-208.05,72.714V65.392
	C309.373,65.717,385.139,94.315,431.783,138.107z"/>
<rect x="34.473" y="377.361" style="fill:#8A6746;" width="31.347" height="84.929"/>
<rect x="50.15" y="377.361" style="fill:#664B33;" width="15.673" height="84.929"/>
<rect x="393.55" y="361.441" style="fill:#8A6746;" width="31.347" height="100.85"/>
<rect x="409.22" y="361.441" style="fill:#664B33;" width="15.673" height="100.85"/>
<path style="fill:#8A6746;" d="M442.514,126.676c-25.036-23.5-58.075-42.945-95.525-56.226
	c-38.369-13.605-79.83-20.574-123.256-20.731c-0.512-0.01-1.014-0.01-1.526-0.01c-85.734,0-164.843,26.948-217.025,73.937L0,128.316
	v224.517l5.183,4.671c52.182,46.989,131.291,73.937,217.025,73.937c0.512,0,1.014,0,1.526-0.01
	c43.426-0.157,84.888-7.126,123.256-20.731c37.449-13.281,70.489-32.726,95.525-56.226l4.942-4.639v-218.52L442.514,126.676z
	 M89.151,373.649c-21.765-9.435-41.368-21.18-57.804-34.941V304.78c17.502,11.41,36.927,21.065,57.804,28.808V373.649z
	 M89.151,299.679c-21.629-9.017-41.2-20.302-57.804-33.552v-9.383h57.804V299.679z M89.151,225.399H31.347v-9.383
	c16.603-13.239,36.174-24.524,57.804-33.541V225.399z M89.151,148.556c-20.877,7.743-40.302,17.408-57.804,28.808v-34.92
	c16.447-13.761,36.039-25.506,57.804-34.941V148.556z M324.368,385.1c-31.19,9.603-65.442,14.848-100.634,14.994h-1.526
	c-35.464,0-70.134-5.245-101.71-14.921v-41.681c30.783,8.129,63.896,12.424,98.074,12.424c1.724,0,3.438-0.01,5.162-0.031
	c35.046-0.439,68.786-5.35,100.634-14.618V385.1z M324.368,308.425c-31.075,9.979-65.358,15.611-100.634,16.102
	c-1.714,0.031-3.438,0.042-5.162,0.042c-34.105,0-67.48-4.848-98.074-13.824v-54h203.87V308.425z M324.368,225.399h-203.87v-53.99
	c30.595-8.986,63.969-13.834,98.074-13.834c1.724,0,3.448,0.01,5.162,0.042c35.276,0.491,69.559,6.123,100.634,16.102
	L324.368,225.399L324.368,225.399z M324.368,140.877c-31.848-9.268-65.588-14.179-100.634-14.618
	c-1.724-0.021-3.438-0.031-5.162-0.031c-34.179,0-67.291,4.295-98.074,12.424V95.978c31.577-9.676,66.247-14.921,101.71-14.921
	h1.526c35.192,0.146,69.444,5.392,100.634,14.994V140.877z M416.11,336.095c-16.969,14.827-37.47,27.418-60.395,37.418v-43.029
	c22.183-8.913,42.59-20.02,60.395-32.852V336.095z M416.11,257.277c-16.771,15.454-37.282,28.62-60.395,39.09v-39.623h60.395
	V257.277z M416.11,225.399h-60.395v-39.623c23.113,10.47,43.624,23.646,60.395,39.09V225.399z M416.11,184.522
	c-17.805-12.842-38.212-23.949-60.395-32.862v-44.022c22.925,10,43.426,22.591,60.395,37.418V184.522z"/>
<path style="fill:#664B33;" d="M442.514,126.676c-25.036-23.5-58.075-42.945-95.525-56.226
	c-38.369-13.605-79.83-20.574-123.256-20.731v31.336c35.192,0.146,69.444,5.392,100.634,14.994v44.826
	c-31.848-9.268-65.588-14.179-100.634-14.618v31.357c35.276,0.491,69.559,6.123,100.634,16.102v51.681H223.734v31.347h100.634
	v51.681c-31.075,9.979-65.358,15.611-100.634,16.102v31.357c35.046-0.439,68.786-5.35,100.634-14.618v43.833
	c-31.19,9.603-65.442,14.848-100.634,14.994v31.336c43.426-0.157,84.887-7.126,123.256-20.731
	c37.449-13.281,70.489-32.726,95.525-56.226l4.942-4.639v-218.52L442.514,126.676z M416.11,336.095
	c-16.969,14.827-37.47,27.418-60.395,37.418v-43.029c22.183-8.913,42.59-20.02,60.395-32.852V336.095z M416.11,257.277
	c-16.771,15.454-37.282,28.62-60.395,39.09v-39.623h60.395V257.277z M416.11,225.399h-60.395v-39.623
	c23.113,10.47,43.624,23.646,60.395,39.09V225.399z M416.11,184.522c-17.805-12.842-38.212-23.949-60.395-32.862v-44.022
	c22.925,10,43.426,22.591,60.395,37.418V184.522z"/>
</svg>