<?xml version="1.0" ?><!-- Uploaded to: SVG Repo, www.svgrepo.com, Generator: SVG Repo Mixer Tools -->
<svg width="800px" height="800px" viewBox="0 0 32 32" enable-background="new 0 0 32 32" id="Filled_Line" version="1.1" xml:space="preserve" xmlns="http://www.w3.org/2000/svg" xmlns:xlink="http://www.w3.org/1999/xlink"><path d="M27,29H5V17H3.235c-1.138,0-1.669-1.419-0.812-2.168L14.131,3.745  c1.048-0.993,2.689-0.993,3.737,0l11.707,11.087C30.433,15.58,29.902,17,28.763,17H27V29z" fill="#F08A5D" id="XMLID_903_"/><path d="M6.235,17c-1.138,0-1.669-1.419-0.812-2.168L17.132,3.745  c0.115-0.109,0.24-0.201,0.368-0.287c-1.036-0.689-2.436-0.597-3.369,0.287L2.423,14.832C1.566,15.581,2.096,17,3.235,17H5v12h2V17  H6.235z" fill="#B46846" id="XMLID_413_"/><path d="M25,18v11h2V17h-1C25.448,17,25,17.448,25,18z" fill="#F3A17D" id="XMLID_414_"/><path d="M29.576,14.831L17.869,3.745c-1.048-0.993-2.689-0.993-3.737,0l-0.285,0.27  c0.723-0.041,1.458,0.196,2.022,0.73l11.707,11.087c0.368,0.322,0.468,0.765,0.386,1.169h0.801  C29.902,17,30.433,15.58,29.576,14.831z" fill="#F3A17D" id="XMLID_415_"/><path d="M20,29h-8v-6c0-2.209,1.791-4,4-4h0c2.209,0,4,1.791,4,4V29z" fill="#4D3F80" id="XMLID_900_"/><path d="M16,19c-1.36,0-2.558,0.682-3.281,1.719C13.367,20.268,14.151,20,15,20c2.209,0,4,1.791,4,4  v5h1v-6C20,20.791,18.209,19,16,19z" fill="#200F60" id="XMLID_416_"/><path d="  M27,29H5V17H3.235c-1.138,0-1.669-1.419-0.812-2.168L14.131,3.745c1.048-0.993,2.689-0.993,3.737,0l11.707,11.087  C30.433,15.58,29.902,17,28.763,17H27V29z" fill="none" id="XMLID_902_" stroke="#200F60" stroke-linecap="round" stroke-linejoin="round" stroke-miterlimit="10" stroke-width="2"/></svg>